# xmcd
#
# Track frame offsets:
#	150
#	16744
#	35947
#	58293
#	80573
#	96769
#	119568
#	137202
#	158952
#	184453
#	215350
#	235072
#
# Disc length: 3524 seconds
#
# Revision: 1
# Processed by: cddbd v1.5.2PL0 Copyright (c) Steve Scherf et al.
# Submitted via: audiograbber 1.83.01
#
DISCID=af0dc20c
DTITLE=Surp - Alles Voll
DYEAR=1900
DGENRE=Blues
TTITLE0=Mamma tanz den Boogie
TTITLE1=Die alten Zeiten
TTITLE2=Moto Morini
TTITLE3=Ich blute
TTITLE4=Genervt
TTITLE5=Scheiﬂding
TTITLE6=Dicke Maus
TTITLE7=Herz eins Rockers
TTITLE8=Das geht niemanden etwas an
TTITLE9=feuer auf den Straﬂen
TTITLE10=Heimkind
TTITLE11=Schnaps versteckt
EXTD=
EXTT0=
EXTT1=
EXTT2=
EXTT3=
EXTT4=
EXTT5=
EXTT6=
EXTT7=
EXTT8=
EXTT9=
EXTT10=
EXTT11=
PLAYORDER=
